<svg xmlns="http://www.w3.org/2000/svg" viewBox="0 0 37.3 11.18"><defs><style>.cls-1{fill:#f5ebda;}</style></defs><title>logo</title><g id="Layer_2" data-name="Layer 2"><g id="Layer_1-2" data-name="Layer 1"><path class="cls-1" d="M5.6,11,5.14,8.72H2.5L2.05,11H0Q.71,8.09,1.42,5.67c.48-1.6,1-3.13,1.4-4.57H5q.7,2.17,1.4,4.62c.46,1.63.92,3.39,1.35,5.29ZM3.84,3c-.11.38-.21.73-.3,1.07s-.17.66-.25,1-.16.65-.23,1-.13.68-.2,1H4.8c-.06-.35-.13-.7-.19-1s-.14-.65-.22-1-.16-.66-.25-1S4,3.4,3.84,3Z"/><path class="cls-1" d="M15.33,10.69l-.22.11-.44.17a4.08,4.08,0,0,1-.66.15,5.93,5.93,0,0,1-.89.06,2.35,2.35,0,0,1-2-.8A3.79,3.79,0,0,1,10.51,8V1.63H8.43V0h4.05V8.16a1.39,1.39,0,0,0,.3,1,1.13,1.13,0,0,0,.77.27,2.56,2.56,0,0,0,1-.16l.53-.21Z"/><path class="cls-1" d="M19.7,3.3a4.81,4.81,0,0,1,1.54.21,2.45,2.45,0,0,1,1,.61,2.15,2.15,0,0,1,.53,1,4.55,4.55,0,0,1,.16,1.27v4.48c-.29.07-.71.14-1.28.23a13.6,13.6,0,0,1-1.9.12,6.57,6.57,0,0,1-1.31-.12,2.83,2.83,0,0,1-1-.43,2,2,0,0,1-.64-.77,2.67,2.67,0,0,1-.22-1.16,2.21,2.21,0,0,1,.26-1.1,2,2,0,0,1,.68-.72,3.07,3.07,0,0,1,1-.39,5.5,5.5,0,0,1,1.16-.12A6.09,6.09,0,0,1,21,6.5V6.26a1.29,1.29,0,0,0-.35-.94,1.61,1.61,0,0,0-1.21-.38A7.41,7.41,0,0,0,18.38,5a4.74,4.74,0,0,0-.84.2l-.28-1.59a7.33,7.33,0,0,1,1-.23A9.14,9.14,0,0,1,19.7,3.3Zm.17,6.3h.63a3.67,3.67,0,0,0,.52,0V7.82l-.46-.05-.5,0a5.65,5.65,0,0,0-.59,0,2.12,2.12,0,0,0-.5.14.79.79,0,0,0-.35.27.82.82,0,0,0-.12.47.74.74,0,0,0,.38.72A2,2,0,0,0,19.87,9.6Z"/><path class="cls-1" d="M24.86,3.73a11.42,11.42,0,0,1,1.31-.27,9.91,9.91,0,0,1,1.69-.13,3.75,3.75,0,0,1,1.48.25,2.18,2.18,0,0,1,.94.7,2.87,2.87,0,0,1,.49,1.09,6.7,6.7,0,0,1,.14,1.4V11h-2V7A3.54,3.54,0,0,0,28.7,5.5a1,1,0,0,0-1-.46l-.44,0-.46,0V11h-2Z"/><path class="cls-1" d="M37.3,9.74a1.35,1.35,0,0,1-.44,1.08,1.47,1.47,0,0,1-1,.36,1.61,1.61,0,0,1-.54-.09,1.67,1.67,0,0,1-.46-.28,1.36,1.36,0,0,1-.32-.45,1.49,1.49,0,0,1-.12-.62,1.46,1.46,0,0,1,.12-.6,1.43,1.43,0,0,1,.32-.44,1.92,1.92,0,0,1,.46-.27,1.61,1.61,0,0,1,.54-.09,1.47,1.47,0,0,1,1,.36A1.31,1.31,0,0,1,37.3,9.74Z"/></g></g></svg>