<svg xmlns="http://www.w3.org/2000/svg" xmlns:xlink="http://www.w3.org/1999/xlink" viewBox="0 0 22.96 22.96"><defs><style>.cls-1{fill:url(#linear-gradient);}.cls-2{fill:#f5ebda;}</style><linearGradient id="linear-gradient" x1="1.57" y1="21.39" x2="21.39" y2="1.57" gradientUnits="userSpaceOnUse"><stop offset="0" stop-color="#f0902f"/><stop offset="0.07" stop-color="#e0913e"/><stop offset="0.4" stop-color="#9f937e"/><stop offset="0.67" stop-color="#6f95ac"/><stop offset="0.88" stop-color="#5297c8"/><stop offset="1" stop-color="#4797d3"/></linearGradient></defs><title>favicon</title><g id="Layer_2" data-name="Layer 2"><g id="Layer_1-2" data-name="Layer 1"><rect class="cls-1" width="22.96" height="22.96" rx="5.37"/><path class="cls-2" d="M10.43,16.35,10,14.06H7.33l-.45,2.29h-2c.47-2,1-3.73,1.43-5.34S7.2,7.88,7.65,6.44H9.79q.71,2.17,1.4,4.62c.47,1.62.92,3.39,1.36,5.29Zm-1.76-8c-.1.38-.2.73-.29,1.07s-.18.66-.26,1-.15.65-.22,1-.14.67-.2,1H9.63c-.06-.36-.12-.7-.19-1s-.13-.66-.21-1-.17-.66-.26-1S8.78,8.74,8.67,8.36Z"/><path class="cls-2" d="M18.13,15.08a1.31,1.31,0,0,1-.43,1.07,1.47,1.47,0,0,1-1,.37,1.63,1.63,0,0,1-.55-.09,1.48,1.48,0,0,1-.45-.28,1.42,1.42,0,0,1-.32-.45,1.49,1.49,0,0,1-.12-.62,1.46,1.46,0,0,1,.12-.6,1.34,1.34,0,0,1,.77-.71,1.63,1.63,0,0,1,.55-.1,1.52,1.52,0,0,1,1,.37A1.29,1.29,0,0,1,18.13,15.08Z"/></g></g></svg>