<?xml version="1.0" encoding="utf-8"?>
<!-- Generator: Adobe Illustrator 24.0.1, SVG Export Plug-In . SVG Version: 6.00 Build 0)  -->
<svg version="1.1" id="Layer_1" xmlns="http://www.w3.org/2000/svg" xmlns:xlink="http://www.w3.org/1999/xlink" x="0px" y="0px"
	 viewBox="0 0 48 48" style="enable-background:new 0 0 48 48;" xml:space="preserve">
<style type="text/css">
	.st0{fill:#202225;}
</style>
<path class="st0" d="M24,40c-4.4,0-8.2-1.6-11.3-4.7S8,28.4,8,24s1.6-8.2,4.7-11.3S19.6,8,24,8c2.8,0,5.3,0.6,7.5,1.7s4,2.7,5.5,4.7
	V8h3v12.7H27.3v-3h8.4c-1.3-2-2.9-3.6-4.9-4.8S26.6,11,24,11c-3.6,0-6.7,1.3-9.2,3.8S11,20.4,11,24s1.3,6.7,3.8,9.2S20.4,37,24,37
	c2.8,0,5.3-0.8,7.6-2.4c2.3-1.6,3.9-3.7,4.8-6.3h3.1c-1,3.5-2.9,6.3-5.8,8.5C30.9,38.9,27.6,40,24,40z"/>
</svg>
